<svg xmlns="http://www.w3.org/2000/svg" viewBox="0 0 1200 800" width="1200" height="800" role="img">
<defs>
<linearGradient id="bg" x1="0" y1="0" x2="0" y2="1">
<stop offset="0%" stop-color="#050706"/><stop offset="55%" stop-color="#0b110e"/><stop offset="100%" stop-color="#040604"/>
</linearGradient>
<radialGradient id="depth" cx="50%" cy="72%" r="46%">
<stop offset="0%" stop-color="#f1d77a" stop-opacity="0.5"/>
<stop offset="55%" stop-color="#006c45" stop-opacity="0.22"/>
<stop offset="100%" stop-color="#000" stop-opacity="0"/>
</radialGradient>
<pattern id="pat" width="120" height="120" patternUnits="userSpaceOnUse">
<g fill="none" stroke="#d4af37" stroke-width="1" opacity="0.14">
<path d="M60 6 L84 36 L114 60 L84 84 L60 114 L36 84 L6 60 L36 36 Z"/>
<path d="M60 24 L96 60 L60 96 L24 60 Z"/>
<rect x="24" y="24" width="72" height="72" transform="rotate(45 60 60)"/>
<circle cx="60" cy="60" r="10"/>
<path d="M0 0 L120 120 M120 0 L0 120" opacity="0.35"/>
</g>
</pattern>
<radialGradient id="vig" cx="50%" cy="45%" r="78%">
<stop offset="45%" stop-color="#000" stop-opacity="0"/>
<stop offset="100%" stop-color="#000" stop-opacity="0.88"/>
</radialGradient>
<linearGradient id="grain" x1="0" y1="0" x2="0" y2="1">
<stop offset="0%" stop-color="#000" stop-opacity="0.35"/>
<stop offset="35%" stop-color="#000" stop-opacity="0"/>
</linearGradient>
</defs>
<g>
<rect width="1200" height="800" fill="url(#bg)"/>
<rect width="1200" height="800" fill="url(#pat)"/>
<rect width="1200" height="800" fill="url(#depth)"/>
<path d="M 228 760 L 228 435.5 Q 228 273.3 432.6 223.4 Q 600 260.8 600 136 Q 600 260.8 767.4 223.4 Q 972 273.3 972 435.5 L 972 760 Z" fill="none" stroke="#d4af37" stroke-width="3" opacity="0.14"/><path d="M 265.2 760 L 265.2 461.5 Q 265.2 312.2 449.3 266.3 Q 600 300.7 600 185.9 Q 600 300.7 750.7 266.3 Q 934.8 312.2 934.8 461.5 L 934.8 760 Z" fill="#03100b" opacity="0.18"/><path d="M 276.4 760 L 276.4 477.7 Q 276.4 336.6 454.4 293.1 Q 600 325.7 600 217.1 Q 600 325.7 745.6 293.1 Q 923.6 336.6 923.6 477.7 L 923.6 760 Z" fill="none" stroke="#d4af37" stroke-width="2.6" opacity="0.28"/><path d="M 308.7 760 L 308.7 500.3 Q 308.7 370.4 468.9 330.5 Q 600 360.4 600 260.6 Q 600 360.4 731.1 330.5 Q 891.3 370.4 891.3 500.3 L 891.3 760 Z" fill="#03100b" opacity="0.30"/><path d="M 324.7 760 L 324.7 519.9 Q 324.7 399.8 476.1 362.9 Q 600 390.6 600 298.2 Q 600 390.6 723.9 362.9 Q 875.3 399.8 875.3 519.9 L 875.3 760 Z" fill="none" stroke="#d4af37" stroke-width="2.3" opacity="0.42"/><path d="M 352.2 760 L 352.2 539.1 Q 352.2 428.6 488.5 394.7 Q 600 420.1 600 335.2 Q 600 420.1 711.5 394.7 Q 847.8 428.6 847.8 539.1 L 847.8 760 Z" fill="#03100b" opacity="0.42"/><path d="M 373.1 760 L 373.1 562.1 Q 373.1 463.1 497.9 432.6 Q 600 455.5 600 379.4 Q 600 455.5 702.1 432.6 Q 826.9 463.1 826.9 562.1 L 826.9 760 Z" fill="none" stroke="#d4af37" stroke-width="2" opacity="0.56"/><path d="M 395.8 760 L 395.8 577.9 Q 395.8 486.9 508.1 458.8 Q 600 479.8 600 409.8 Q 600 479.8 691.9 458.8 Q 804.2 486.9 804.2 577.9 L 804.2 760 Z" fill="#03100b" opacity="0.54"/><path d="M 421.4 760 L 421.4 604.2 Q 421.4 526.4 519.6 502.4 Q 600 520.4 600 460.5 Q 600 520.4 680.4 502.4 Q 778.6 526.4 778.6 604.2 L 778.6 760 Z" fill="none" stroke="#d4af37" stroke-width="1.6" opacity="0.70"/><path d="M 439.3 760 L 439.3 616.7 Q 439.3 545.1 527.7 523 Q 600 539.6 600 484.4 Q 600 539.6 672.3 523 Q 760.7 545.1 760.7 616.7 L 760.7 760 Z" fill="#03100b" opacity="0.66"/>
<rect x="0" y="760" width="1200" height="40" fill="#020403"/>
<circle cx="1081.3" cy="761.6" r="2.7" fill="#d4af37" opacity="0.18"/><circle cx="48.2" cy="640.7" r="0.8" fill="#d4af37" opacity="0.44"/><circle cx="555.5" cy="365" r="1.7" fill="#d4af37" opacity="0.49"/><circle cx="1089.3" cy="386.2" r="2.8" fill="#d4af37" opacity="0.25"/><circle cx="624.4" cy="485.6" r="2.6" fill="#d4af37" opacity="0.26"/><circle cx="516.1" cy="465.1" r="2" fill="#d4af37" opacity="0.24"/><circle cx="560.3" cy="494.9" r="1.8" fill="#d4af37" opacity="0.51"/><circle cx="193.1" cy="509.5" r="2.4" fill="#d4af37" opacity="0.20"/><circle cx="497.9" cy="772.1" r="2.9" fill="#d4af37" opacity="0.13"/><circle cx="588.6" cy="657.9" r="2.5" fill="#d4af37" opacity="0.54"/><circle cx="237.2" cy="637.5" r="2.8" fill="#d4af37" opacity="0.50"/><circle cx="515.6" cy="610.2" r="1.6" fill="#d4af37" opacity="0.38"/><circle cx="519.9" cy="348.4" r="1.2" fill="#d4af37" opacity="0.38"/><circle cx="545.7" cy="664.2" r="1.7" fill="#d4af37" opacity="0.16"/><circle cx="782.9" cy="397" r="1.5" fill="#d4af37" opacity="0.35"/><circle cx="499.9" cy="575.3" r="1.8" fill="#d4af37" opacity="0.11"/><circle cx="584.7" cy="711.2" r="1.5" fill="#d4af37" opacity="0.24"/><circle cx="612.5" cy="398.7" r="2.2" fill="#d4af37" opacity="0.43"/><circle cx="1108.1" cy="797.8" r="1.8" fill="#d4af37" opacity="0.25"/><circle cx="371.7" cy="713.1" r="2" fill="#d4af37" opacity="0.43"/><circle cx="737.6" cy="308.4" r="1.5" fill="#d4af37" opacity="0.42"/><circle cx="1033.9" cy="668.4" r="1.2" fill="#d4af37" opacity="0.43"/><circle cx="311.7" cy="547.2" r="2.1" fill="#d4af37" opacity="0.31"/><circle cx="1013.9" cy="614.9" r="2.9" fill="#d4af37" opacity="0.19"/><circle cx="50.3" cy="682.3" r="0.9" fill="#d4af37" opacity="0.52"/><circle cx="949.7" cy="475.2" r="1.7" fill="#d4af37" opacity="0.26"/><circle cx="156.7" cy="618.1" r="3" fill="#d4af37" opacity="0.35"/><circle cx="442.1" cy="618.4" r="2.9" fill="#d4af37" opacity="0.22"/><circle cx="295.5" cy="651.7" r="2.7" fill="#d4af37" opacity="0.11"/><circle cx="869.8" cy="557.9" r="1.6" fill="#d4af37" opacity="0.30"/><circle cx="344.5" cy="510.8" r="2.5" fill="#d4af37" opacity="0.41"/><circle cx="1079.1" cy="669.7" r="2.2" fill="#d4af37" opacity="0.36"/><circle cx="22.3" cy="374.5" r="2.6" fill="#d4af37" opacity="0.20"/><circle cx="348.8" cy="695.3" r="2.5" fill="#d4af37" opacity="0.44"/><circle cx="990.3" cy="756.3" r="1.2" fill="#d4af37" opacity="0.46"/><circle cx="230.1" cy="745.6" r="1.6" fill="#d4af37" opacity="0.48"/><circle cx="630.6" cy="730.2" r="2.7" fill="#d4af37" opacity="0.24"/><circle cx="461.4" cy="648.2" r="1.3" fill="#d4af37" opacity="0.22"/><circle cx="297.9" cy="738.4" r="2" fill="#d4af37" opacity="0.13"/><circle cx="958" cy="756.7" r="1.7" fill="#d4af37" opacity="0.15"/><circle cx="446.9" cy="622.4" r="2.7" fill="#d4af37" opacity="0.48"/><circle cx="277.1" cy="582.5" r="1.1" fill="#d4af37" opacity="0.31"/><circle cx="634.7" cy="676.1" r="1.3" fill="#d4af37" opacity="0.14"/><circle cx="157.8" cy="449.4" r="1.4" fill="#d4af37" opacity="0.17"/><circle cx="798.4" cy="521.4" r="1.5" fill="#d4af37" opacity="0.36"/><circle cx="535.5" cy="450.8" r="3.2" fill="#d4af37" opacity="0.43"/><circle cx="207" cy="486.4" r="2.7" fill="#d4af37" opacity="0.23"/><circle cx="632.1" cy="348.7" r="2" fill="#d4af37" opacity="0.44"/><circle cx="89" cy="286.3" r="0.9" fill="#d4af37" opacity="0.42"/><circle cx="120.8" cy="415.9" r="0.9" fill="#d4af37" opacity="0.35"/><circle cx="334.7" cy="726.6" r="1.4" fill="#d4af37" opacity="0.22"/><circle cx="365.8" cy="620.4" r="1.4" fill="#d4af37" opacity="0.11"/><circle cx="1073.4" cy="628.3" r="2.5" fill="#d4af37" opacity="0.20"/><circle cx="937.4" cy="752.5" r="2.7" fill="#d4af37" opacity="0.53"/><circle cx="726.1" cy="416.8" r="2.2" fill="#d4af37" opacity="0.52"/><circle cx="1001.5" cy="454" r="2.4" fill="#d4af37" opacity="0.39"/><circle cx="132.5" cy="412.2" r="1.2" fill="#d4af37" opacity="0.17"/><circle cx="784.6" cy="710.2" r="2.5" fill="#d4af37" opacity="0.42"/><circle cx="753.5" cy="582.6" r="2.1" fill="#d4af37" opacity="0.11"/><circle cx="713.8" cy="564.7" r="2" fill="#d4af37" opacity="0.23"/><circle cx="548.6" cy="719.7" r="1.4" fill="#d4af37" opacity="0.53"/><circle cx="631.4" cy="495.8" r="2.3" fill="#d4af37" opacity="0.40"/><circle cx="727.8" cy="517.2" r="3.1" fill="#d4af37" opacity="0.23"/><circle cx="285.1" cy="496.5" r="2.8" fill="#d4af37" opacity="0.51"/><circle cx="579.8" cy="591.5" r="1.5" fill="#d4af37" opacity="0.46"/><circle cx="1092.1" cy="655.9" r="1.7" fill="#d4af37" opacity="0.16"/><circle cx="773.5" cy="284.5" r="2.1" fill="#d4af37" opacity="0.49"/><circle cx="779.9" cy="604.1" r="1.8" fill="#d4af37" opacity="0.52"/><circle cx="735.8" cy="569.9" r="2.4" fill="#d4af37" opacity="0.47"/><circle cx="100.5" cy="419" r="1.7" fill="#d4af37" opacity="0.15"/>
<rect width="1200" height="800" fill="url(#vig)"/>
<rect width="1200" height="800" fill="url(#grain)"/>
</g>
</svg>
