<svg xmlns="http://www.w3.org/2000/svg" viewBox="0 0 1280 720" width="1280" height="720" role="img">
<defs>
<linearGradient id="sky" x1="0" y1="0" x2="0" y2="1">
<stop offset="0%" stop-color="#030b08"/><stop offset="55%" stop-color="#0a1f16"/><stop offset="100%" stop-color="#1c1710"/>
</linearGradient>
<radialGradient id="glow" cx="50%" cy="62%" r="46%">
<stop offset="0%" stop-color="#e8c874" stop-opacity="0.55"/>
<stop offset="55%" stop-color="#0b7350" stop-opacity="0.25"/>
<stop offset="100%" stop-color="#000" stop-opacity="0"/>
</radialGradient>
<linearGradient id="dune" x1="0" y1="0" x2="0" y2="1">
<stop offset="0%" stop-color="#2b2416"/><stop offset="100%" stop-color="#080906"/>
</linearGradient>
<pattern id="pat" width="120" height="120" patternUnits="userSpaceOnUse">
<g fill="none" stroke="#e8c874" stroke-width="1" opacity="0.1">
<path d="M60 6 L84 36 L114 60 L84 84 L60 114 L36 84 L6 60 L36 36 Z"/>
<path d="M60 24 L96 60 L60 96 L24 60 Z"/>
<rect x="24" y="24" width="72" height="72" transform="rotate(45 60 60)"/>
<circle cx="60" cy="60" r="10"/>
<path d="M0 0 L120 120 M120 0 L0 120" opacity="0.35"/>
</g>
</pattern>
<radialGradient id="vig" cx="50%" cy="45%" r="78%">
<stop offset="45%" stop-color="#000" stop-opacity="0"/>
<stop offset="100%" stop-color="#000" stop-opacity="0.9"/>
</radialGradient>
<linearGradient id="grain" x1="0" y1="0" x2="0" y2="1">
<stop offset="0%" stop-color="#000" stop-opacity="0.35"/>
<stop offset="35%" stop-color="#000" stop-opacity="0"/>
</linearGradient>
</defs>
<g>
<rect width="1280" height="720" fill="url(#sky)"/>
<rect width="1280" height="720" fill="url(#pat)" opacity="0.6"/>
<circle cx="5.4" cy="23.1" r="2.3" fill="#fff" opacity="0.20"/><circle cx="409.9" cy="252.6" r="1.9" fill="#fff" opacity="0.50"/><circle cx="999.9" cy="192.1" r="0.8" fill="#fff" opacity="0.20"/><circle cx="963.6" cy="167.5" r="1.6" fill="#fff" opacity="0.40"/><circle cx="332" cy="189.5" r="0.9" fill="#fff" opacity="0.35"/><circle cx="331.9" cy="29.6" r="2.1" fill="#fff" opacity="0.44"/><circle cx="889.2" cy="403.9" r="2.2" fill="#fff" opacity="0.85"/><circle cx="744.7" cy="279.2" r="2.5" fill="#fff" opacity="0.51"/><circle cx="839.8" cy="106.6" r="1.7" fill="#fff" opacity="0.54"/><circle cx="434.2" cy="163.8" r="1.9" fill="#fff" opacity="0.85"/><circle cx="55" cy="142" r="1.9" fill="#fff" opacity="0.83"/><circle cx="96.7" cy="171.9" r="2.4" fill="#fff" opacity="0.86"/><circle cx="852.2" cy="137.7" r="1.2" fill="#fff" opacity="0.41"/><circle cx="1115.8" cy="282.7" r="1.1" fill="#fff" opacity="0.53"/><circle cx="496.6" cy="169.1" r="1.7" fill="#fff" opacity="0.30"/><circle cx="664.2" cy="78" r="1.1" fill="#fff" opacity="0.42"/><circle cx="1064.3" cy="398.8" r="1.7" fill="#fff" opacity="0.40"/><circle cx="326.8" cy="285.7" r="0.7" fill="#fff" opacity="0.70"/><circle cx="824.4" cy="419.9" r="2.4" fill="#fff" opacity="0.81"/><circle cx="82.8" cy="137.8" r="1.8" fill="#fff" opacity="0.87"/><circle cx="422" cy="29" r="2.1" fill="#fff" opacity="0.19"/><circle cx="688.6" cy="47.6" r="1.5" fill="#fff" opacity="0.65"/><circle cx="820.2" cy="135.8" r="0.8" fill="#fff" opacity="0.31"/><circle cx="379.8" cy="102" r="1.2" fill="#fff" opacity="0.85"/><circle cx="682.8" cy="350" r="1.2" fill="#fff" opacity="0.68"/><circle cx="1254" cy="417" r="1.8" fill="#fff" opacity="0.45"/><circle cx="876.9" cy="160.3" r="2.1" fill="#fff" opacity="0.71"/><circle cx="1013.4" cy="331.2" r="1.7" fill="#fff" opacity="0.74"/><circle cx="735.3" cy="248.5" r="0.7" fill="#fff" opacity="0.38"/><circle cx="786.9" cy="327.8" r="1.7" fill="#fff" opacity="0.77"/><circle cx="158.8" cy="49.6" r="2" fill="#fff" opacity="0.74"/><circle cx="873.1" cy="202.3" r="1.5" fill="#fff" opacity="0.43"/><circle cx="1159.3" cy="199.9" r="2.4" fill="#fff" opacity="0.83"/><circle cx="1042.4" cy="389.9" r="1.2" fill="#fff" opacity="0.66"/><circle cx="1161.5" cy="367.7" r="1.2" fill="#fff" opacity="0.72"/><circle cx="279.7" cy="403.9" r="1" fill="#fff" opacity="0.59"/><circle cx="1105.9" cy="242.8" r="1.5" fill="#fff" opacity="0.23"/><circle cx="1086.9" cy="0.5" r="2" fill="#fff" opacity="0.27"/><circle cx="191.5" cy="229.6" r="2.5" fill="#fff" opacity="0.35"/><circle cx="425.4" cy="47.4" r="2.2" fill="#fff" opacity="0.41"/><circle cx="297.6" cy="114.2" r="1.3" fill="#fff" opacity="0.27"/><circle cx="578.2" cy="70.7" r="2.4" fill="#fff" opacity="0.63"/><circle cx="887" cy="28" r="0.6" fill="#fff" opacity="0.65"/><circle cx="253.3" cy="257.5" r="1.6" fill="#fff" opacity="0.31"/><circle cx="1027.9" cy="248.5" r="0.7" fill="#fff" opacity="0.39"/><circle cx="485.2" cy="136.8" r="0.8" fill="#fff" opacity="0.80"/><circle cx="857.1" cy="272.7" r="1.9" fill="#fff" opacity="0.34"/><circle cx="1018.1" cy="419.8" r="2" fill="#fff" opacity="0.40"/><circle cx="1201.7" cy="184.4" r="1.2" fill="#fff" opacity="0.49"/><circle cx="1248" cy="223.2" r="1.7" fill="#fff" opacity="0.49"/><circle cx="82.3" cy="429.2" r="1.6" fill="#fff" opacity="0.62"/><circle cx="605.5" cy="43.3" r="0.7" fill="#fff" opacity="0.31"/><circle cx="175.1" cy="427.9" r="1.8" fill="#fff" opacity="0.75"/><circle cx="938" cy="113.4" r="2.3" fill="#fff" opacity="0.65"/><circle cx="354.4" cy="349.7" r="2.4" fill="#fff" opacity="0.81"/><circle cx="652.6" cy="191.7" r="1.2" fill="#fff" opacity="0.51"/><circle cx="755.4" cy="427.5" r="0.9" fill="#fff" opacity="0.84"/><circle cx="1098" cy="348.9" r="0.6" fill="#fff" opacity="0.53"/><circle cx="876.4" cy="408.7" r="2.1" fill="#fff" opacity="0.37"/><circle cx="867.7" cy="162.3" r="2" fill="#fff" opacity="0.76"/><circle cx="961.4" cy="5" r="2.1" fill="#fff" opacity="0.47"/><circle cx="1061.9" cy="204.6" r="1.1" fill="#fff" opacity="0.35"/><circle cx="262.5" cy="341.1" r="0.7" fill="#fff" opacity="0.80"/><circle cx="1030.4" cy="212.9" r="0.6" fill="#fff" opacity="0.66"/><circle cx="1142.7" cy="354.5" r="1" fill="#fff" opacity="0.66"/><circle cx="1234.8" cy="415.3" r="1.2" fill="#fff" opacity="0.47"/><circle cx="1098.2" cy="241.9" r="0.8" fill="#fff" opacity="0.66"/><circle cx="431.4" cy="401.2" r="0.9" fill="#fff" opacity="0.24"/><circle cx="860.7" cy="289.5" r="2.3" fill="#fff" opacity="0.79"/><circle cx="1253.2" cy="286.9" r="1.4" fill="#fff" opacity="0.56"/><circle cx="420.2" cy="269" r="1.9" fill="#fff" opacity="0.34"/><circle cx="1152.8" cy="287.3" r="2.2" fill="#fff" opacity="0.53"/><circle cx="887.5" cy="265.9" r="1.3" fill="#fff" opacity="0.62"/><circle cx="704.7" cy="423.4" r="1.3" fill="#fff" opacity="0.88"/><circle cx="676.5" cy="346" r="2.4" fill="#fff" opacity="0.48"/><circle cx="1107.9" cy="364.7" r="1.2" fill="#fff" opacity="0.63"/><circle cx="86.9" cy="356.9" r="0.7" fill="#fff" opacity="0.80"/><circle cx="1128.2" cy="270.1" r="1.8" fill="#fff" opacity="0.70"/><circle cx="206.4" cy="297.4" r="1.7" fill="#fff" opacity="0.49"/><circle cx="1161.2" cy="36" r="1.4" fill="#fff" opacity="0.33"/><circle cx="1253.7" cy="388.2" r="1.5" fill="#fff" opacity="0.68"/><circle cx="334.1" cy="408.1" r="1" fill="#fff" opacity="0.36"/><circle cx="360.4" cy="415.6" r="2.5" fill="#fff" opacity="0.50"/><circle cx="728.6" cy="339.1" r="2" fill="#fff" opacity="0.78"/><circle cx="314" cy="72.6" r="0.9" fill="#fff" opacity="0.27"/><circle cx="803.6" cy="98" r="0.8" fill="#fff" opacity="0.33"/><circle cx="1100.1" cy="299.9" r="0.6" fill="#fff" opacity="0.52"/><circle cx="1057.1" cy="194.5" r="1.9" fill="#fff" opacity="0.74"/><circle cx="1125.1" cy="9.5" r="2.4" fill="#fff" opacity="0.78"/><circle cx="169.4" cy="6.1" r="2.3" fill="#fff" opacity="0.46"/><circle cx="438.6" cy="287.4" r="1.2" fill="#fff" opacity="0.34"/><circle cx="825" cy="428.3" r="1.6" fill="#fff" opacity="0.75"/><circle cx="835.8" cy="91.5" r="2.2" fill="#fff" opacity="0.33"/><circle cx="895.5" cy="180" r="0.8" fill="#fff" opacity="0.52"/><circle cx="280.1" cy="292.1" r="1.2" fill="#fff" opacity="0.74"/><circle cx="701.9" cy="19.5" r="1.3" fill="#fff" opacity="0.83"/><circle cx="845.8" cy="71.7" r="0.9" fill="#fff" opacity="0.80"/><circle cx="757" cy="183.6" r="1.2" fill="#fff" opacity="0.78"/><circle cx="740.1" cy="371.8" r="1" fill="#fff" opacity="0.63"/><circle cx="228.5" cy="122.2" r="1.1" fill="#fff" opacity="0.39"/><circle cx="1126.2" cy="130.4" r="1.6" fill="#fff" opacity="0.69"/><circle cx="1240.5" cy="95.5" r="2.4" fill="#fff" opacity="0.44"/><circle cx="865.3" cy="431.1" r="0.9" fill="#fff" opacity="0.36"/><circle cx="1096.9" cy="313.7" r="1.4" fill="#fff" opacity="0.87"/><circle cx="939.5" cy="146.4" r="0.8" fill="#fff" opacity="0.60"/><circle cx="583.5" cy="212.7" r="1.7" fill="#fff" opacity="0.35"/><circle cx="633.8" cy="356.7" r="1" fill="#fff" opacity="0.21"/><circle cx="190.4" cy="24.4" r="0.8" fill="#fff" opacity="0.73"/><circle cx="839.2" cy="263.8" r="1.4" fill="#fff" opacity="0.31"/><circle cx="894.9" cy="321.3" r="2.3" fill="#fff" opacity="0.75"/><circle cx="394.7" cy="151.9" r="1.5" fill="#fff" opacity="0.29"/><circle cx="543.6" cy="401.5" r="1.7" fill="#fff" opacity="0.21"/><circle cx="830.2" cy="163.1" r="1.7" fill="#fff" opacity="0.71"/><circle cx="1195" cy="263.4" r="2" fill="#fff" opacity="0.45"/><circle cx="308.6" cy="72.1" r="0.9" fill="#fff" opacity="0.35"/><circle cx="542.2" cy="124" r="1.6" fill="#fff" opacity="0.51"/><circle cx="1088.7" cy="60" r="1.3" fill="#fff" opacity="0.22"/><circle cx="695.2" cy="72.3" r="1.1" fill="#fff" opacity="0.19"/><circle cx="1067.2" cy="327.2" r="1.6" fill="#fff" opacity="0.39"/><circle cx="1043.4" cy="289.2" r="2.2" fill="#fff" opacity="0.82"/><circle cx="121.9" cy="408.8" r="1" fill="#fff" opacity="0.22"/><circle cx="798.1" cy="107.3" r="2.2" fill="#fff" opacity="0.40"/><circle cx="773.4" cy="353.4" r="0.8" fill="#fff" opacity="0.52"/><circle cx="975.3" cy="228.2" r="2.1" fill="#fff" opacity="0.35"/><circle cx="608.5" cy="309" r="1" fill="#fff" opacity="0.73"/><circle cx="697.7" cy="324.8" r="1.2" fill="#fff" opacity="0.40"/><circle cx="781.6" cy="243.5" r="1.9" fill="#fff" opacity="0.82"/><circle cx="617.6" cy="232.7" r="2.4" fill="#fff" opacity="0.24"/><circle cx="1158.3" cy="232.5" r="1.2" fill="#fff" opacity="0.28"/><circle cx="659.2" cy="413.6" r="2.4" fill="#fff" opacity="0.35"/>
<path d="M 371.2 619.2 L 371.2 349.6 Q 371.2 214.8 519 173.4 Q 640 204.5 640 100.8 Q 640 204.5 761 173.4 Q 908.8 214.8 908.8 349.6 L 908.8 619.2 Z" fill="url(#glow)"/>
<path d="M 371.2 619.2 L 371.2 349.6 Q 371.2 214.8 519 173.4 Q 640 204.5 640 100.8 Q 640 204.5 761 173.4 Q 908.8 214.8 908.8 349.6 L 908.8 619.2 Z" fill="none" stroke="#e8c874" stroke-width="2.5" opacity="0.55"/>
<path d="M 0 720 L 0 576 L 20 534.5 L 40 537.3 L 60 540.6 L 80 544.4 L 100 548.3 L 120 552.2 L 140 556 L 160 559.4 L 180 562.5 L 200 565 L 220 567.1 L 240 568.7 L 260 569.9 L 280 570.9 L 300 571.8 L 320 572.7 L 340 573.8 L 360 575.3 L 380 577.2 L 400 579.6 L 420 582.6 L 440 586.1 L 460 590.2 L 480 594.6 L 500 599.3 L 520 604 L 540 608.7 L 560 612.9 L 580 616.6 L 600 619.6 L 620 621.6 L 640 622.6 L 660 622.4 L 680 621 L 700 618.5 L 720 614.9 L 740 610.4 L 760 605.1 L 780 599.3 L 800 593.2 L 820 586.9 L 840 580.8 L 860 575.1 L 880 569.9 L 900 565.4 L 920 561.6 L 940 558.6 L 960 556.4 L 980 554.9 L 1000 554.1 L 1020 553.7 L 1040 553.6 L 1060 553.8 L 1080 553.9 L 1100 553.9 L 1120 553.6 L 1140 553 L 1160 552.1 L 1180 550.8 L 1200 549.2 L 1220 547.4 L 1240 545.5 L 1260 543.8 L 1280 542.3 L 1280 720 Z" fill="url(#dune)"/>
<path d="M 0 720 L 0 662.4 L 20 665.6 L 40 666.8 L 60 667.8 L 80 668.6 L 100 669.2 L 120 669.7 L 140 670.1 L 160 670.5 L 180 670.8 L 200 671.1 L 220 671.5 L 240 671.9 L 260 672.4 L 280 673 L 300 673.8 L 320 674.7 L 340 675.7 L 360 676.9 L 380 678.2 L 400 679.6 L 420 681 L 440 682.5 L 460 684.1 L 480 685.6 L 500 687 L 520 688.3 L 540 689.4 L 560 690.4 L 580 691 L 600 691.5 L 620 691.6 L 640 691.4 L 660 690.8 L 680 689.9 L 700 688.6 L 720 687 L 740 685 L 760 682.7 L 780 680.2 L 800 677.4 L 820 674.5 L 840 671.3 L 860 668.1 L 880 664.9 L 900 661.7 L 920 658.5 L 940 655.4 L 960 652.6 L 980 649.9 L 1000 647.5 L 1020 645.3 L 1040 643.5 L 1060 641.9 L 1080 640.7 L 1100 639.8 L 1120 639.2 L 1140 638.9 L 1160 638.8 L 1180 639 L 1200 639.3 L 1220 639.9 L 1240 640.5 L 1260 641.2 L 1280 642 L 1280 720 Z" fill="#050604"/>
<ellipse cx="640" cy="568.8" rx="25.6" ry="64.8" fill="#040705"/>
<circle cx="17.2" cy="271.6" r="1.7" fill="#e8c874" opacity="0.31"/><circle cx="1041.1" cy="678.6" r="1.9" fill="#e8c874" opacity="0.41"/><circle cx="872.5" cy="718.4" r="1.6" fill="#e8c874" opacity="0.44"/><circle cx="178.9" cy="643.3" r="2" fill="#e8c874" opacity="0.25"/><circle cx="816.9" cy="460.9" r="2.5" fill="#e8c874" opacity="0.40"/><circle cx="987.8" cy="583" r="3.2" fill="#e8c874" opacity="0.43"/><circle cx="63.5" cy="473.8" r="0.8" fill="#e8c874" opacity="0.40"/><circle cx="1264.6" cy="422.7" r="1.3" fill="#e8c874" opacity="0.38"/><circle cx="688.8" cy="452.6" r="2.4" fill="#e8c874" opacity="0.28"/><circle cx="150.9" cy="320.6" r="2.6" fill="#e8c874" opacity="0.15"/><circle cx="974.8" cy="470.9" r="0.9" fill="#e8c874" opacity="0.23"/><circle cx="195.2" cy="643.5" r="1" fill="#e8c874" opacity="0.47"/><circle cx="712" cy="444.1" r="2.3" fill="#e8c874" opacity="0.43"/><circle cx="1175.2" cy="684.5" r="2.4" fill="#e8c874" opacity="0.45"/><circle cx="821.3" cy="674.5" r="1.2" fill="#e8c874" opacity="0.17"/><circle cx="1040.8" cy="334.3" r="2.5" fill="#e8c874" opacity="0.14"/><circle cx="1137" cy="671.7" r="2.6" fill="#e8c874" opacity="0.48"/><circle cx="136.3" cy="495.7" r="1.6" fill="#e8c874" opacity="0.33"/><circle cx="189.1" cy="458.9" r="1.5" fill="#e8c874" opacity="0.41"/><circle cx="1022.9" cy="368.1" r="1.9" fill="#e8c874" opacity="0.46"/><circle cx="825.7" cy="620.9" r="2.5" fill="#e8c874" opacity="0.40"/><circle cx="61.3" cy="493.5" r="1.2" fill="#e8c874" opacity="0.46"/><circle cx="1195.7" cy="627.2" r="1.8" fill="#e8c874" opacity="0.16"/><circle cx="194.2" cy="333.7" r="2.1" fill="#e8c874" opacity="0.31"/><circle cx="531" cy="576.5" r="2.9" fill="#e8c874" opacity="0.50"/><circle cx="128.6" cy="673.3" r="1.7" fill="#e8c874" opacity="0.37"/><circle cx="529.5" cy="280.4" r="2.9" fill="#e8c874" opacity="0.19"/><circle cx="878.5" cy="553.1" r="0.8" fill="#e8c874" opacity="0.30"/><circle cx="1057.1" cy="364.7" r="1.8" fill="#e8c874" opacity="0.35"/><circle cx="227.6" cy="433.5" r="1.2" fill="#e8c874" opacity="0.16"/><circle cx="410.4" cy="708.8" r="1.3" fill="#e8c874" opacity="0.13"/><circle cx="711.2" cy="356.3" r="2.9" fill="#e8c874" opacity="0.46"/><circle cx="139.5" cy="435.9" r="1.7" fill="#e8c874" opacity="0.12"/><circle cx="399.2" cy="593.1" r="2.3" fill="#e8c874" opacity="0.44"/><circle cx="349.7" cy="389.2" r="1.6" fill="#e8c874" opacity="0.11"/><circle cx="1038.5" cy="567.2" r="1.2" fill="#e8c874" opacity="0.16"/><circle cx="844.9" cy="606.2" r="2.3" fill="#e8c874" opacity="0.48"/><circle cx="275.4" cy="262.5" r="2.9" fill="#e8c874" opacity="0.43"/><circle cx="429.6" cy="279.8" r="2.4" fill="#e8c874" opacity="0.28"/><circle cx="1238.1" cy="374.1" r="2.9" fill="#e8c874" opacity="0.26"/><circle cx="771.4" cy="672.5" r="3.1" fill="#e8c874" opacity="0.24"/><circle cx="1079.5" cy="265.4" r="1.4" fill="#e8c874" opacity="0.15"/><circle cx="743.7" cy="690.3" r="3.2" fill="#e8c874" opacity="0.24"/><circle cx="719.1" cy="283.7" r="1.5" fill="#e8c874" opacity="0.32"/><circle cx="448.1" cy="557.9" r="1.5" fill="#e8c874" opacity="0.33"/><circle cx="1226" cy="477.2" r="1" fill="#e8c874" opacity="0.27"/><circle cx="836.9" cy="492.1" r="2.6" fill="#e8c874" opacity="0.32"/><circle cx="921.5" cy="395.6" r="2.6" fill="#e8c874" opacity="0.35"/><circle cx="215.6" cy="458.5" r="2.2" fill="#e8c874" opacity="0.14"/><circle cx="880.9" cy="439.2" r="0.9" fill="#e8c874" opacity="0.31"/><circle cx="425.4" cy="540.6" r="2.9" fill="#e8c874" opacity="0.17"/><circle cx="916.8" cy="548.3" r="2.9" fill="#e8c874" opacity="0.24"/><circle cx="945.7" cy="521.5" r="2.8" fill="#e8c874" opacity="0.54"/><circle cx="121.1" cy="440.8" r="3.2" fill="#e8c874" opacity="0.29"/><circle cx="116.5" cy="545.4" r="1.1" fill="#e8c874" opacity="0.41"/><circle cx="687.6" cy="465.8" r="2.3" fill="#e8c874" opacity="0.14"/><circle cx="921.2" cy="523.5" r="1.8" fill="#e8c874" opacity="0.23"/><circle cx="934.9" cy="261.9" r="1.3" fill="#e8c874" opacity="0.25"/><circle cx="848.8" cy="620.5" r="2.9" fill="#e8c874" opacity="0.37"/><circle cx="568" cy="371.4" r="1.5" fill="#e8c874" opacity="0.37"/><circle cx="396.4" cy="484.6" r="2.8" fill="#e8c874" opacity="0.13"/><circle cx="261.8" cy="255" r="1.7" fill="#e8c874" opacity="0.11"/><circle cx="772.1" cy="494.8" r="1.6" fill="#e8c874" opacity="0.21"/><circle cx="683" cy="666.4" r="2.5" fill="#e8c874" opacity="0.44"/><circle cx="1036.9" cy="346.9" r="3.1" fill="#e8c874" opacity="0.19"/><circle cx="952.7" cy="555.6" r="2.2" fill="#e8c874" opacity="0.53"/><circle cx="1087.6" cy="593.9" r="2.1" fill="#e8c874" opacity="0.41"/><circle cx="389.1" cy="671.9" r="1" fill="#e8c874" opacity="0.34"/><circle cx="239.3" cy="588.3" r="1" fill="#e8c874" opacity="0.15"/><circle cx="969.7" cy="292.2" r="2" fill="#e8c874" opacity="0.54"/><circle cx="367.7" cy="314.9" r="2.1" fill="#e8c874" opacity="0.29"/><circle cx="274" cy="647.5" r="1.4" fill="#e8c874" opacity="0.40"/><circle cx="811.7" cy="497.4" r="3" fill="#e8c874" opacity="0.39"/><circle cx="506" cy="540.8" r="1.7" fill="#e8c874" opacity="0.20"/><circle cx="395.9" cy="512.2" r="1.5" fill="#e8c874" opacity="0.26"/><circle cx="316.6" cy="533.3" r="2.4" fill="#e8c874" opacity="0.35"/><circle cx="173.2" cy="659.2" r="2.6" fill="#e8c874" opacity="0.49"/><circle cx="146.1" cy="259.1" r="1.2" fill="#e8c874" opacity="0.47"/><circle cx="487.1" cy="368" r="2.7" fill="#e8c874" opacity="0.28"/><circle cx="607" cy="564.1" r="2" fill="#e8c874" opacity="0.13"/>
<rect width="1280" height="720" fill="url(#vig)"/>
<rect width="1280" height="720" fill="url(#grain)"/>
<rect x="0" y="0" width="1280" height="43.2" fill="#000" opacity="0.85"/>
<rect x="0" y="676.8" width="1280" height="43.2" fill="#000" opacity="0.85"/>
</g>
</svg>
