<svg xmlns="http://www.w3.org/2000/svg" viewBox="0 0 1200 800" width="1200" height="800" role="img">
<defs>
<linearGradient id="bg" x1="0" y1="0" x2="0" y2="1">
<stop offset="0%" stop-color="#050706"/><stop offset="55%" stop-color="#0b110e"/><stop offset="100%" stop-color="#040604"/>
</linearGradient>
<radialGradient id="depth" cx="50%" cy="72%" r="46%">
<stop offset="0%" stop-color="#f1d77a" stop-opacity="0.5"/>
<stop offset="55%" stop-color="#006c45" stop-opacity="0.22"/>
<stop offset="100%" stop-color="#000" stop-opacity="0"/>
</radialGradient>
<pattern id="pat" width="120" height="120" patternUnits="userSpaceOnUse">
<g fill="none" stroke="#d4af37" stroke-width="1" opacity="0.14">
<path d="M60 6 L84 36 L114 60 L84 84 L60 114 L36 84 L6 60 L36 36 Z"/>
<path d="M60 24 L96 60 L60 96 L24 60 Z"/>
<rect x="24" y="24" width="72" height="72" transform="rotate(45 60 60)"/>
<circle cx="60" cy="60" r="10"/>
<path d="M0 0 L120 120 M120 0 L0 120" opacity="0.35"/>
</g>
</pattern>
<radialGradient id="vig" cx="50%" cy="45%" r="78%">
<stop offset="45%" stop-color="#000" stop-opacity="0"/>
<stop offset="100%" stop-color="#000" stop-opacity="0.88"/>
</radialGradient>
<linearGradient id="grain" x1="0" y1="0" x2="0" y2="1">
<stop offset="0%" stop-color="#000" stop-opacity="0.35"/>
<stop offset="35%" stop-color="#000" stop-opacity="0"/>
</linearGradient>
</defs>
<g>
<rect width="1200" height="800" fill="url(#bg)"/>
<rect width="1200" height="800" fill="url(#pat)"/>
<rect width="1200" height="800" fill="url(#depth)"/>
<path d="M 228 760 L 228 435.5 Q 228 273.3 432.6 223.4 Q 600 260.8 600 136 Q 600 260.8 767.4 223.4 Q 972 273.3 972 435.5 L 972 760 Z" fill="none" stroke="#d4af37" stroke-width="3" opacity="0.14"/><path d="M 265.2 760 L 265.2 461.5 Q 265.2 312.2 449.3 266.3 Q 600 300.7 600 185.9 Q 600 300.7 750.7 266.3 Q 934.8 312.2 934.8 461.5 L 934.8 760 Z" fill="#03100b" opacity="0.18"/><path d="M 276.4 760 L 276.4 477.7 Q 276.4 336.6 454.4 293.1 Q 600 325.7 600 217.1 Q 600 325.7 745.6 293.1 Q 923.6 336.6 923.6 477.7 L 923.6 760 Z" fill="none" stroke="#d4af37" stroke-width="2.6" opacity="0.28"/><path d="M 308.7 760 L 308.7 500.3 Q 308.7 370.4 468.9 330.5 Q 600 360.4 600 260.6 Q 600 360.4 731.1 330.5 Q 891.3 370.4 891.3 500.3 L 891.3 760 Z" fill="#03100b" opacity="0.30"/><path d="M 324.7 760 L 324.7 519.9 Q 324.7 399.8 476.1 362.9 Q 600 390.6 600 298.2 Q 600 390.6 723.9 362.9 Q 875.3 399.8 875.3 519.9 L 875.3 760 Z" fill="none" stroke="#d4af37" stroke-width="2.3" opacity="0.42"/><path d="M 352.2 760 L 352.2 539.1 Q 352.2 428.6 488.5 394.7 Q 600 420.1 600 335.2 Q 600 420.1 711.5 394.7 Q 847.8 428.6 847.8 539.1 L 847.8 760 Z" fill="#03100b" opacity="0.42"/><path d="M 373.1 760 L 373.1 562.1 Q 373.1 463.1 497.9 432.6 Q 600 455.5 600 379.4 Q 600 455.5 702.1 432.6 Q 826.9 463.1 826.9 562.1 L 826.9 760 Z" fill="none" stroke="#d4af37" stroke-width="2" opacity="0.56"/><path d="M 395.8 760 L 395.8 577.9 Q 395.8 486.9 508.1 458.8 Q 600 479.8 600 409.8 Q 600 479.8 691.9 458.8 Q 804.2 486.9 804.2 577.9 L 804.2 760 Z" fill="#03100b" opacity="0.54"/><path d="M 421.4 760 L 421.4 604.2 Q 421.4 526.4 519.6 502.4 Q 600 520.4 600 460.5 Q 600 520.4 680.4 502.4 Q 778.6 526.4 778.6 604.2 L 778.6 760 Z" fill="none" stroke="#d4af37" stroke-width="1.6" opacity="0.70"/><path d="M 439.3 760 L 439.3 616.7 Q 439.3 545.1 527.7 523 Q 600 539.6 600 484.4 Q 600 539.6 672.3 523 Q 760.7 545.1 760.7 616.7 L 760.7 760 Z" fill="#03100b" opacity="0.66"/>
<rect x="0" y="760" width="1200" height="40" fill="#020403"/>
<circle cx="826.5" cy="394.7" r="2.1" fill="#d4af37" opacity="0.51"/><circle cx="980" cy="773" r="2.7" fill="#d4af37" opacity="0.42"/><circle cx="824.5" cy="634.5" r="2.6" fill="#d4af37" opacity="0.37"/><circle cx="705.3" cy="596.2" r="2.5" fill="#d4af37" opacity="0.51"/><circle cx="710.2" cy="314.1" r="1.1" fill="#d4af37" opacity="0.28"/><circle cx="857.3" cy="761.4" r="1.4" fill="#d4af37" opacity="0.10"/><circle cx="159.5" cy="436.4" r="3.2" fill="#d4af37" opacity="0.35"/><circle cx="433.7" cy="360.2" r="2.4" fill="#d4af37" opacity="0.19"/><circle cx="623.7" cy="614.5" r="1.1" fill="#d4af37" opacity="0.28"/><circle cx="105.6" cy="420.4" r="1.7" fill="#d4af37" opacity="0.41"/><circle cx="944.2" cy="369" r="1.3" fill="#d4af37" opacity="0.50"/><circle cx="569.8" cy="344.2" r="2.7" fill="#d4af37" opacity="0.11"/><circle cx="242.9" cy="327.7" r="2.6" fill="#d4af37" opacity="0.30"/><circle cx="976.7" cy="488.8" r="3.1" fill="#d4af37" opacity="0.47"/><circle cx="886.4" cy="727" r="2.9" fill="#d4af37" opacity="0.11"/><circle cx="1031.9" cy="489.9" r="2.3" fill="#d4af37" opacity="0.50"/><circle cx="726.2" cy="336.7" r="1" fill="#d4af37" opacity="0.39"/><circle cx="774.1" cy="607.1" r="2.8" fill="#d4af37" opacity="0.31"/><circle cx="1013.7" cy="487.1" r="1.1" fill="#d4af37" opacity="0.15"/><circle cx="427" cy="372.1" r="1.2" fill="#d4af37" opacity="0.10"/><circle cx="1189.5" cy="678" r="1.7" fill="#d4af37" opacity="0.12"/><circle cx="327" cy="779.8" r="1.8" fill="#d4af37" opacity="0.11"/><circle cx="948.8" cy="331" r="1.3" fill="#d4af37" opacity="0.25"/><circle cx="925.6" cy="660.9" r="1.2" fill="#d4af37" opacity="0.34"/><circle cx="1181" cy="443.8" r="2.9" fill="#d4af37" opacity="0.47"/><circle cx="466.2" cy="758.1" r="1.5" fill="#d4af37" opacity="0.34"/><circle cx="184.5" cy="467.4" r="0.8" fill="#d4af37" opacity="0.21"/><circle cx="1137" cy="424" r="2.9" fill="#d4af37" opacity="0.54"/><circle cx="756.5" cy="285.1" r="1.6" fill="#d4af37" opacity="0.40"/><circle cx="898.3" cy="462.2" r="2.7" fill="#d4af37" opacity="0.55"/><circle cx="558.1" cy="534.9" r="2.4" fill="#d4af37" opacity="0.11"/><circle cx="984.3" cy="669.8" r="2.2" fill="#d4af37" opacity="0.29"/><circle cx="553.9" cy="753.7" r="1.9" fill="#d4af37" opacity="0.16"/><circle cx="281.2" cy="403.9" r="1.9" fill="#d4af37" opacity="0.41"/><circle cx="327.1" cy="544.4" r="1.1" fill="#d4af37" opacity="0.49"/><circle cx="579" cy="609.3" r="1" fill="#d4af37" opacity="0.51"/><circle cx="669" cy="645" r="2.1" fill="#d4af37" opacity="0.47"/><circle cx="1099.1" cy="549.3" r="2.6" fill="#d4af37" opacity="0.31"/><circle cx="243.9" cy="781.2" r="2.4" fill="#d4af37" opacity="0.19"/><circle cx="296.5" cy="679" r="1.7" fill="#d4af37" opacity="0.42"/><circle cx="729.5" cy="540.2" r="1" fill="#d4af37" opacity="0.50"/><circle cx="137.3" cy="740.9" r="2.3" fill="#d4af37" opacity="0.14"/><circle cx="30.8" cy="668.1" r="2.2" fill="#d4af37" opacity="0.14"/><circle cx="850.8" cy="363.1" r="1" fill="#d4af37" opacity="0.37"/><circle cx="1170.8" cy="629" r="1.3" fill="#d4af37" opacity="0.16"/><circle cx="557.2" cy="600.3" r="2.8" fill="#d4af37" opacity="0.32"/><circle cx="854.9" cy="747.5" r="2.3" fill="#d4af37" opacity="0.33"/><circle cx="969.5" cy="696.4" r="1.3" fill="#d4af37" opacity="0.24"/><circle cx="910.9" cy="612.4" r="1.8" fill="#d4af37" opacity="0.31"/><circle cx="1171.3" cy="470.8" r="2.7" fill="#d4af37" opacity="0.19"/><circle cx="603.5" cy="504.1" r="2.2" fill="#d4af37" opacity="0.39"/><circle cx="1068.9" cy="526.2" r="1.8" fill="#d4af37" opacity="0.40"/><circle cx="1024.8" cy="644.3" r="3.1" fill="#d4af37" opacity="0.20"/><circle cx="118.6" cy="799.7" r="3.2" fill="#d4af37" opacity="0.31"/><circle cx="1158.5" cy="347.4" r="2.8" fill="#d4af37" opacity="0.21"/><circle cx="929" cy="575.5" r="2.8" fill="#d4af37" opacity="0.11"/><circle cx="20.2" cy="715.2" r="2" fill="#d4af37" opacity="0.26"/><circle cx="938.8" cy="481.1" r="2.2" fill="#d4af37" opacity="0.47"/><circle cx="71.9" cy="473.9" r="0.8" fill="#d4af37" opacity="0.48"/><circle cx="968.6" cy="745" r="2.2" fill="#d4af37" opacity="0.34"/><circle cx="1112.1" cy="553.6" r="2.6" fill="#d4af37" opacity="0.50"/><circle cx="648.3" cy="397.9" r="3.1" fill="#d4af37" opacity="0.15"/><circle cx="240.6" cy="770" r="1.9" fill="#d4af37" opacity="0.19"/><circle cx="1119.9" cy="535.6" r="1.3" fill="#d4af37" opacity="0.30"/><circle cx="298.1" cy="569.2" r="2.8" fill="#d4af37" opacity="0.14"/><circle cx="614.3" cy="724.8" r="1.5" fill="#d4af37" opacity="0.14"/><circle cx="381.5" cy="714.2" r="2.6" fill="#d4af37" opacity="0.34"/><circle cx="904" cy="511.3" r="1.7" fill="#d4af37" opacity="0.32"/><circle cx="833.1" cy="715.1" r="0.8" fill="#d4af37" opacity="0.52"/><circle cx="630.2" cy="310.7" r="1" fill="#d4af37" opacity="0.31"/>
<rect width="1200" height="800" fill="url(#vig)"/>
<rect width="1200" height="800" fill="url(#grain)"/>
</g>
</svg>
