<svg xmlns="http://www.w3.org/2000/svg" viewBox="0 0 1200 800" width="1200" height="800" role="img">
<defs>
<linearGradient id="bg" x1="0" y1="0" x2="0" y2="1">
<stop offset="0%" stop-color="#050706"/><stop offset="55%" stop-color="#0b110e"/><stop offset="100%" stop-color="#040604"/>
</linearGradient>
<radialGradient id="depth" cx="50%" cy="72%" r="46%">
<stop offset="0%" stop-color="#f1d77a" stop-opacity="0.5"/>
<stop offset="55%" stop-color="#006c45" stop-opacity="0.22"/>
<stop offset="100%" stop-color="#000" stop-opacity="0"/>
</radialGradient>
<pattern id="pat" width="120" height="120" patternUnits="userSpaceOnUse">
<g fill="none" stroke="#d4af37" stroke-width="1" opacity="0.14">
<path d="M60 6 L84 36 L114 60 L84 84 L60 114 L36 84 L6 60 L36 36 Z"/>
<path d="M60 24 L96 60 L60 96 L24 60 Z"/>
<rect x="24" y="24" width="72" height="72" transform="rotate(45 60 60)"/>
<circle cx="60" cy="60" r="10"/>
<path d="M0 0 L120 120 M120 0 L0 120" opacity="0.35"/>
</g>
</pattern>
<radialGradient id="vig" cx="50%" cy="45%" r="78%">
<stop offset="45%" stop-color="#000" stop-opacity="0"/>
<stop offset="100%" stop-color="#000" stop-opacity="0.88"/>
</radialGradient>
<linearGradient id="grain" x1="0" y1="0" x2="0" y2="1">
<stop offset="0%" stop-color="#000" stop-opacity="0.35"/>
<stop offset="35%" stop-color="#000" stop-opacity="0"/>
</linearGradient>
</defs>
<g>
<rect width="1200" height="800" fill="url(#bg)"/>
<rect width="1200" height="800" fill="url(#pat)"/>
<rect width="1200" height="800" fill="url(#depth)"/>
<path d="M 228 760 L 228 435.5 Q 228 273.3 432.6 223.4 Q 600 260.8 600 136 Q 600 260.8 767.4 223.4 Q 972 273.3 972 435.5 L 972 760 Z" fill="none" stroke="#d4af37" stroke-width="3" opacity="0.14"/><path d="M 265.2 760 L 265.2 461.5 Q 265.2 312.2 449.3 266.3 Q 600 300.7 600 185.9 Q 600 300.7 750.7 266.3 Q 934.8 312.2 934.8 461.5 L 934.8 760 Z" fill="#03100b" opacity="0.18"/><path d="M 276.4 760 L 276.4 477.7 Q 276.4 336.6 454.4 293.1 Q 600 325.7 600 217.1 Q 600 325.7 745.6 293.1 Q 923.6 336.6 923.6 477.7 L 923.6 760 Z" fill="none" stroke="#d4af37" stroke-width="2.6" opacity="0.28"/><path d="M 308.7 760 L 308.7 500.3 Q 308.7 370.4 468.9 330.5 Q 600 360.4 600 260.6 Q 600 360.4 731.1 330.5 Q 891.3 370.4 891.3 500.3 L 891.3 760 Z" fill="#03100b" opacity="0.30"/><path d="M 324.7 760 L 324.7 519.9 Q 324.7 399.8 476.1 362.9 Q 600 390.6 600 298.2 Q 600 390.6 723.9 362.9 Q 875.3 399.8 875.3 519.9 L 875.3 760 Z" fill="none" stroke="#d4af37" stroke-width="2.3" opacity="0.42"/><path d="M 352.2 760 L 352.2 539.1 Q 352.2 428.6 488.5 394.7 Q 600 420.1 600 335.2 Q 600 420.1 711.5 394.7 Q 847.8 428.6 847.8 539.1 L 847.8 760 Z" fill="#03100b" opacity="0.42"/><path d="M 373.1 760 L 373.1 562.1 Q 373.1 463.1 497.9 432.6 Q 600 455.5 600 379.4 Q 600 455.5 702.1 432.6 Q 826.9 463.1 826.9 562.1 L 826.9 760 Z" fill="none" stroke="#d4af37" stroke-width="2" opacity="0.56"/><path d="M 395.8 760 L 395.8 577.9 Q 395.8 486.9 508.1 458.8 Q 600 479.8 600 409.8 Q 600 479.8 691.9 458.8 Q 804.2 486.9 804.2 577.9 L 804.2 760 Z" fill="#03100b" opacity="0.54"/><path d="M 421.4 760 L 421.4 604.2 Q 421.4 526.4 519.6 502.4 Q 600 520.4 600 460.5 Q 600 520.4 680.4 502.4 Q 778.6 526.4 778.6 604.2 L 778.6 760 Z" fill="none" stroke="#d4af37" stroke-width="1.6" opacity="0.70"/><path d="M 439.3 760 L 439.3 616.7 Q 439.3 545.1 527.7 523 Q 600 539.6 600 484.4 Q 600 539.6 672.3 523 Q 760.7 545.1 760.7 616.7 L 760.7 760 Z" fill="#03100b" opacity="0.66"/>
<rect x="0" y="760" width="1200" height="40" fill="#020403"/>
<circle cx="1017.6" cy="539.9" r="3.1" fill="#d4af37" opacity="0.15"/><circle cx="881.2" cy="413.8" r="3.1" fill="#d4af37" opacity="0.21"/><circle cx="922.8" cy="432.3" r="1.4" fill="#d4af37" opacity="0.13"/><circle cx="93.3" cy="698.7" r="2.1" fill="#d4af37" opacity="0.32"/><circle cx="645.9" cy="442.7" r="2.8" fill="#d4af37" opacity="0.49"/><circle cx="901.4" cy="409.2" r="2.5" fill="#d4af37" opacity="0.31"/><circle cx="460.1" cy="740.3" r="1.6" fill="#d4af37" opacity="0.47"/><circle cx="253.2" cy="732.2" r="1.2" fill="#d4af37" opacity="0.53"/><circle cx="529.4" cy="732.7" r="1.9" fill="#d4af37" opacity="0.39"/><circle cx="167.9" cy="338.5" r="2.3" fill="#d4af37" opacity="0.51"/><circle cx="1013.9" cy="700.4" r="1.2" fill="#d4af37" opacity="0.39"/><circle cx="829.1" cy="673.7" r="3.1" fill="#d4af37" opacity="0.53"/><circle cx="750.7" cy="603.2" r="2.7" fill="#d4af37" opacity="0.47"/><circle cx="653.5" cy="620.3" r="2.7" fill="#d4af37" opacity="0.47"/><circle cx="508.8" cy="739.5" r="1.8" fill="#d4af37" opacity="0.18"/><circle cx="932.9" cy="294" r="1.9" fill="#d4af37" opacity="0.43"/><circle cx="20.1" cy="617.5" r="2.6" fill="#d4af37" opacity="0.51"/><circle cx="652.9" cy="450.8" r="1.2" fill="#d4af37" opacity="0.18"/><circle cx="784.5" cy="720.1" r="1.1" fill="#d4af37" opacity="0.45"/><circle cx="685.5" cy="627.8" r="1.8" fill="#d4af37" opacity="0.24"/><circle cx="250.6" cy="400.8" r="1" fill="#d4af37" opacity="0.35"/><circle cx="557.2" cy="696.3" r="3.2" fill="#d4af37" opacity="0.46"/><circle cx="171" cy="753.2" r="3.1" fill="#d4af37" opacity="0.30"/><circle cx="991.8" cy="626.4" r="3.1" fill="#d4af37" opacity="0.34"/><circle cx="333" cy="492.7" r="3.2" fill="#d4af37" opacity="0.40"/><circle cx="228.8" cy="545.9" r="1.1" fill="#d4af37" opacity="0.28"/><circle cx="463.7" cy="450.4" r="2.5" fill="#d4af37" opacity="0.54"/><circle cx="915.8" cy="569.8" r="2.9" fill="#d4af37" opacity="0.19"/><circle cx="710.8" cy="560" r="1.8" fill="#d4af37" opacity="0.30"/><circle cx="1176.9" cy="403.9" r="1.3" fill="#d4af37" opacity="0.36"/><circle cx="697.9" cy="776.8" r="1.8" fill="#d4af37" opacity="0.11"/><circle cx="1055.4" cy="799.7" r="1" fill="#d4af37" opacity="0.12"/><circle cx="755.2" cy="729.3" r="1.3" fill="#d4af37" opacity="0.31"/><circle cx="331.9" cy="622.4" r="1.2" fill="#d4af37" opacity="0.54"/><circle cx="524.5" cy="703.3" r="3" fill="#d4af37" opacity="0.13"/><circle cx="917.4" cy="451.5" r="2.7" fill="#d4af37" opacity="0.48"/><circle cx="940.2" cy="318.9" r="2" fill="#d4af37" opacity="0.41"/><circle cx="620.8" cy="753.5" r="1.6" fill="#d4af37" opacity="0.24"/><circle cx="1184.4" cy="619.1" r="2.7" fill="#d4af37" opacity="0.37"/><circle cx="1092.6" cy="347.3" r="2.9" fill="#d4af37" opacity="0.33"/><circle cx="217.5" cy="731.8" r="1.1" fill="#d4af37" opacity="0.37"/><circle cx="1142.2" cy="362.1" r="3.2" fill="#d4af37" opacity="0.27"/><circle cx="483.7" cy="544.1" r="1" fill="#d4af37" opacity="0.14"/><circle cx="631" cy="687.9" r="1.3" fill="#d4af37" opacity="0.11"/><circle cx="591.5" cy="548.3" r="2.6" fill="#d4af37" opacity="0.19"/><circle cx="540.9" cy="358.2" r="1.9" fill="#d4af37" opacity="0.18"/><circle cx="969" cy="421.7" r="1.4" fill="#d4af37" opacity="0.15"/><circle cx="416.4" cy="305.6" r="3.1" fill="#d4af37" opacity="0.39"/><circle cx="894.5" cy="497.8" r="1.8" fill="#d4af37" opacity="0.17"/><circle cx="383.4" cy="689.6" r="1.9" fill="#d4af37" opacity="0.53"/><circle cx="101.9" cy="411" r="2.8" fill="#d4af37" opacity="0.26"/><circle cx="541.6" cy="596.9" r="2.7" fill="#d4af37" opacity="0.52"/><circle cx="161.2" cy="632.3" r="2" fill="#d4af37" opacity="0.43"/><circle cx="132.7" cy="634.3" r="2.2" fill="#d4af37" opacity="0.25"/><circle cx="834.2" cy="659.4" r="1.8" fill="#d4af37" opacity="0.44"/><circle cx="83.4" cy="614.4" r="1.9" fill="#d4af37" opacity="0.43"/><circle cx="1004.4" cy="617.9" r="2" fill="#d4af37" opacity="0.53"/><circle cx="523.1" cy="652.9" r="1.8" fill="#d4af37" opacity="0.20"/><circle cx="583.1" cy="555.4" r="1.2" fill="#d4af37" opacity="0.31"/><circle cx="477.5" cy="479.8" r="2.6" fill="#d4af37" opacity="0.26"/><circle cx="989.5" cy="548.1" r="2.9" fill="#d4af37" opacity="0.41"/><circle cx="935.7" cy="601.4" r="3.1" fill="#d4af37" opacity="0.11"/><circle cx="606" cy="580.4" r="1" fill="#d4af37" opacity="0.11"/><circle cx="493.8" cy="636.3" r="1.2" fill="#d4af37" opacity="0.34"/><circle cx="809.4" cy="715.9" r="2.4" fill="#d4af37" opacity="0.38"/><circle cx="372.6" cy="543.1" r="2.9" fill="#d4af37" opacity="0.38"/><circle cx="975.5" cy="521.9" r="1.7" fill="#d4af37" opacity="0.23"/><circle cx="810.9" cy="580.9" r="3" fill="#d4af37" opacity="0.36"/><circle cx="460.1" cy="346.2" r="2.6" fill="#d4af37" opacity="0.26"/><circle cx="833" cy="521.9" r="2.7" fill="#d4af37" opacity="0.31"/>
<rect width="1200" height="800" fill="url(#vig)"/>
<rect width="1200" height="800" fill="url(#grain)"/>
</g>
</svg>
