<svg xmlns="http://www.w3.org/2000/svg" viewBox="0 0 1200 800" width="1200" height="800" role="img">
<defs>
<radialGradient id="vig" cx="50%" cy="45%" r="78%">
<stop offset="45%" stop-color="#000" stop-opacity="0"/>
<stop offset="100%" stop-color="#000" stop-opacity="0.9"/>
</radialGradient>
<linearGradient id="grain" x1="0" y1="0" x2="0" y2="1">
<stop offset="0%" stop-color="#000" stop-opacity="0.35"/>
<stop offset="35%" stop-color="#000" stop-opacity="0"/>
</linearGradient>
<radialGradient id="lamp" cx="50%" cy="40%" r="60%">
<stop offset="0%" stop-color="#f1d77a" stop-opacity="0.35"/>
<stop offset="100%" stop-color="#000" stop-opacity="0"/>
</radialGradient>
</defs>
<g>
<rect width="1200" height="800" fill="#050706"/>
<rect x="0" y="0" width="90" height="90" transform="rotate(45 48 48)" fill="#006c45" opacity="0.36"/><rect x="96" y="0" width="90" height="90" transform="rotate(45 144 48)" fill="#111a15" opacity="0.26"/><rect x="192" y="0" width="90" height="90" transform="rotate(45 240 48)" fill="#006c45" opacity="0.44"/><rect x="288" y="0" width="90" height="90" transform="rotate(45 336 48)" fill="#d4af37" opacity="0.77"/><rect x="384" y="0" width="90" height="90" transform="rotate(45 432 48)" fill="#111a15" opacity="0.35"/><rect x="480" y="0" width="90" height="90" transform="rotate(45 528 48)" fill="#111a15" opacity="0.61"/><rect x="576" y="0" width="90" height="90" transform="rotate(45 624 48)" fill="#006c45" opacity="0.64"/><rect x="672" y="0" width="90" height="90" transform="rotate(45 720 48)" fill="#0b110e" opacity="0.74"/><rect x="768" y="0" width="90" height="90" transform="rotate(45 816 48)" fill="#d4af37" opacity="0.59"/><rect x="864" y="0" width="90" height="90" transform="rotate(45 912 48)" fill="#0b110e" opacity="0.68"/><rect x="960" y="0" width="90" height="90" transform="rotate(45 1008 48)" fill="#006c45" opacity="0.73"/><rect x="1056" y="0" width="90" height="90" transform="rotate(45 1104 48)" fill="#006c45" opacity="0.75"/><rect x="1152" y="0" width="90" height="90" transform="rotate(45 1200 48)" fill="#111a15" opacity="0.37"/><rect x="1248" y="0" width="90" height="90" transform="rotate(45 1296 48)" fill="#d4af37" opacity="0.32"/><rect x="0" y="96" width="90" height="90" transform="rotate(45 48 144)" fill="#d4af37" opacity="0.26"/><rect x="96" y="96" width="90" height="90" transform="rotate(45 144 144)" fill="#111a15" opacity="0.73"/><rect x="192" y="96" width="90" height="90" transform="rotate(45 240 144)" fill="#0b110e" opacity="0.67"/><rect x="288" y="96" width="90" height="90" transform="rotate(45 336 144)" fill="#111a15" opacity="0.64"/><rect x="384" y="96" width="90" height="90" transform="rotate(45 432 144)" fill="#0b110e" opacity="0.79"/><rect x="480" y="96" width="90" height="90" transform="rotate(45 528 144)" fill="#111a15" opacity="0.77"/><rect x="576" y="96" width="90" height="90" transform="rotate(45 624 144)" fill="#111a15" opacity="0.83"/><rect x="672" y="96" width="90" height="90" transform="rotate(45 720 144)" fill="#111a15" opacity="0.68"/><rect x="768" y="96" width="90" height="90" transform="rotate(45 816 144)" fill="#0b110e" opacity="0.84"/><rect x="864" y="96" width="90" height="90" transform="rotate(45 912 144)" fill="#0b110e" opacity="0.52"/><rect x="960" y="96" width="90" height="90" transform="rotate(45 1008 144)" fill="#0b110e" opacity="0.56"/><rect x="1056" y="96" width="90" height="90" transform="rotate(45 1104 144)" fill="#111a15" opacity="0.43"/><rect x="1152" y="96" width="90" height="90" transform="rotate(45 1200 144)" fill="#0b110e" opacity="0.47"/><rect x="1248" y="96" width="90" height="90" transform="rotate(45 1296 144)" fill="#006c45" opacity="0.65"/><rect x="0" y="192" width="90" height="90" transform="rotate(45 48 240)" fill="#d4af37" opacity="0.25"/><rect x="96" y="192" width="90" height="90" transform="rotate(45 144 240)" fill="#0b110e" opacity="0.53"/><rect x="192" y="192" width="90" height="90" transform="rotate(45 240 240)" fill="#111a15" opacity="0.60"/><rect x="288" y="192" width="90" height="90" transform="rotate(45 336 240)" fill="#111a15" opacity="0.57"/><rect x="384" y="192" width="90" height="90" transform="rotate(45 432 240)" fill="#0b110e" opacity="0.68"/><rect x="480" y="192" width="90" height="90" transform="rotate(45 528 240)" fill="#d4af37" opacity="0.54"/><rect x="576" y="192" width="90" height="90" transform="rotate(45 624 240)" fill="#0b110e" opacity="0.44"/><rect x="672" y="192" width="90" height="90" transform="rotate(45 720 240)" fill="#0b110e" opacity="0.53"/><rect x="768" y="192" width="90" height="90" transform="rotate(45 816 240)" fill="#d4af37" opacity="0.36"/><rect x="864" y="192" width="90" height="90" transform="rotate(45 912 240)" fill="#d4af37" opacity="0.56"/><rect x="960" y="192" width="90" height="90" transform="rotate(45 1008 240)" fill="#0b110e" opacity="0.42"/><rect x="1056" y="192" width="90" height="90" transform="rotate(45 1104 240)" fill="#0b110e" opacity="0.62"/><rect x="1152" y="192" width="90" height="90" transform="rotate(45 1200 240)" fill="#006c45" opacity="0.73"/><rect x="1248" y="192" width="90" height="90" transform="rotate(45 1296 240)" fill="#0b110e" opacity="0.74"/><rect x="0" y="288" width="90" height="90" transform="rotate(45 48 336)" fill="#111a15" opacity="0.41"/><rect x="96" y="288" width="90" height="90" transform="rotate(45 144 336)" fill="#d4af37" opacity="0.60"/><rect x="192" y="288" width="90" height="90" transform="rotate(45 240 336)" fill="#d4af37" opacity="0.63"/><rect x="288" y="288" width="90" height="90" transform="rotate(45 336 336)" fill="#006c45" opacity="0.61"/><rect x="384" y="288" width="90" height="90" transform="rotate(45 432 336)" fill="#006c45" opacity="0.84"/><rect x="480" y="288" width="90" height="90" transform="rotate(45 528 336)" fill="#111a15" opacity="0.67"/><rect x="576" y="288" width="90" height="90" transform="rotate(45 624 336)" fill="#0b110e" opacity="0.31"/><rect x="672" y="288" width="90" height="90" transform="rotate(45 720 336)" fill="#111a15" opacity="0.45"/><rect x="768" y="288" width="90" height="90" transform="rotate(45 816 336)" fill="#111a15" opacity="0.41"/><rect x="864" y="288" width="90" height="90" transform="rotate(45 912 336)" fill="#0b110e" opacity="0.26"/><rect x="960" y="288" width="90" height="90" transform="rotate(45 1008 336)" fill="#0b110e" opacity="0.80"/><rect x="1056" y="288" width="90" height="90" transform="rotate(45 1104 336)" fill="#0b110e" opacity="0.66"/><rect x="1152" y="288" width="90" height="90" transform="rotate(45 1200 336)" fill="#006c45" opacity="0.32"/><rect x="1248" y="288" width="90" height="90" transform="rotate(45 1296 336)" fill="#d4af37" opacity="0.66"/><rect x="0" y="384" width="90" height="90" transform="rotate(45 48 432)" fill="#0b110e" opacity="0.79"/><rect x="96" y="384" width="90" height="90" transform="rotate(45 144 432)" fill="#006c45" opacity="0.26"/><rect x="192" y="384" width="90" height="90" transform="rotate(45 240 432)" fill="#111a15" opacity="0.81"/><rect x="288" y="384" width="90" height="90" transform="rotate(45 336 432)" fill="#111a15" opacity="0.25"/><rect x="384" y="384" width="90" height="90" transform="rotate(45 432 432)" fill="#111a15" opacity="0.28"/><rect x="480" y="384" width="90" height="90" transform="rotate(45 528 432)" fill="#111a15" opacity="0.52"/><rect x="576" y="384" width="90" height="90" transform="rotate(45 624 432)" fill="#0b110e" opacity="0.69"/><rect x="672" y="384" width="90" height="90" transform="rotate(45 720 432)" fill="#d4af37" opacity="0.85"/><rect x="768" y="384" width="90" height="90" transform="rotate(45 816 432)" fill="#0b110e" opacity="0.53"/><rect x="864" y="384" width="90" height="90" transform="rotate(45 912 432)" fill="#d4af37" opacity="0.49"/><rect x="960" y="384" width="90" height="90" transform="rotate(45 1008 432)" fill="#111a15" opacity="0.55"/><rect x="1056" y="384" width="90" height="90" transform="rotate(45 1104 432)" fill="#d4af37" opacity="0.58"/><rect x="1152" y="384" width="90" height="90" transform="rotate(45 1200 432)" fill="#0b110e" opacity="0.58"/><rect x="1248" y="384" width="90" height="90" transform="rotate(45 1296 432)" fill="#006c45" opacity="0.76"/><rect x="0" y="480" width="90" height="90" transform="rotate(45 48 528)" fill="#006c45" opacity="0.56"/><rect x="96" y="480" width="90" height="90" transform="rotate(45 144 528)" fill="#111a15" opacity="0.33"/><rect x="192" y="480" width="90" height="90" transform="rotate(45 240 528)" fill="#006c45" opacity="0.31"/><rect x="288" y="480" width="90" height="90" transform="rotate(45 336 528)" fill="#006c45" opacity="0.28"/><rect x="384" y="480" width="90" height="90" transform="rotate(45 432 528)" fill="#006c45" opacity="0.77"/><rect x="480" y="480" width="90" height="90" transform="rotate(45 528 528)" fill="#0b110e" opacity="0.27"/><rect x="576" y="480" width="90" height="90" transform="rotate(45 624 528)" fill="#0b110e" opacity="0.56"/><rect x="672" y="480" width="90" height="90" transform="rotate(45 720 528)" fill="#0b110e" opacity="0.72"/><rect x="768" y="480" width="90" height="90" transform="rotate(45 816 528)" fill="#d4af37" opacity="0.78"/><rect x="864" y="480" width="90" height="90" transform="rotate(45 912 528)" fill="#0b110e" opacity="0.38"/><rect x="960" y="480" width="90" height="90" transform="rotate(45 1008 528)" fill="#111a15" opacity="0.37"/><rect x="1056" y="480" width="90" height="90" transform="rotate(45 1104 528)" fill="#d4af37" opacity="0.40"/><rect x="1152" y="480" width="90" height="90" transform="rotate(45 1200 528)" fill="#111a15" opacity="0.69"/><rect x="1248" y="480" width="90" height="90" transform="rotate(45 1296 528)" fill="#006c45" opacity="0.68"/><rect x="0" y="576" width="90" height="90" transform="rotate(45 48 624)" fill="#d4af37" opacity="0.68"/><rect x="96" y="576" width="90" height="90" transform="rotate(45 144 624)" fill="#111a15" opacity="0.56"/><rect x="192" y="576" width="90" height="90" transform="rotate(45 240 624)" fill="#0b110e" opacity="0.28"/><rect x="288" y="576" width="90" height="90" transform="rotate(45 336 624)" fill="#006c45" opacity="0.60"/><rect x="384" y="576" width="90" height="90" transform="rotate(45 432 624)" fill="#0b110e" opacity="0.47"/><rect x="480" y="576" width="90" height="90" transform="rotate(45 528 624)" fill="#111a15" opacity="0.52"/><rect x="576" y="576" width="90" height="90" transform="rotate(45 624 624)" fill="#111a15" opacity="0.60"/><rect x="672" y="576" width="90" height="90" transform="rotate(45 720 624)" fill="#111a15" opacity="0.48"/><rect x="768" y="576" width="90" height="90" transform="rotate(45 816 624)" fill="#0b110e" opacity="0.59"/><rect x="864" y="576" width="90" height="90" transform="rotate(45 912 624)" fill="#0b110e" opacity="0.45"/><rect x="960" y="576" width="90" height="90" transform="rotate(45 1008 624)" fill="#006c45" opacity="0.26"/><rect x="1056" y="576" width="90" height="90" transform="rotate(45 1104 624)" fill="#0b110e" opacity="0.44"/><rect x="1152" y="576" width="90" height="90" transform="rotate(45 1200 624)" fill="#d4af37" opacity="0.51"/><rect x="1248" y="576" width="90" height="90" transform="rotate(45 1296 624)" fill="#006c45" opacity="0.79"/><rect x="0" y="672" width="90" height="90" transform="rotate(45 48 720)" fill="#0b110e" opacity="0.71"/><rect x="96" y="672" width="90" height="90" transform="rotate(45 144 720)" fill="#0b110e" opacity="0.74"/><rect x="192" y="672" width="90" height="90" transform="rotate(45 240 720)" fill="#0b110e" opacity="0.44"/><rect x="288" y="672" width="90" height="90" transform="rotate(45 336 720)" fill="#d4af37" opacity="0.29"/><rect x="384" y="672" width="90" height="90" transform="rotate(45 432 720)" fill="#0b110e" opacity="0.72"/><rect x="480" y="672" width="90" height="90" transform="rotate(45 528 720)" fill="#006c45" opacity="0.74"/><rect x="576" y="672" width="90" height="90" transform="rotate(45 624 720)" fill="#111a15" opacity="0.56"/><rect x="672" y="672" width="90" height="90" transform="rotate(45 720 720)" fill="#006c45" opacity="0.34"/><rect x="768" y="672" width="90" height="90" transform="rotate(45 816 720)" fill="#0b110e" opacity="0.60"/><rect x="864" y="672" width="90" height="90" transform="rotate(45 912 720)" fill="#006c45" opacity="0.51"/><rect x="960" y="672" width="90" height="90" transform="rotate(45 1008 720)" fill="#d4af37" opacity="0.84"/><rect x="1056" y="672" width="90" height="90" transform="rotate(45 1104 720)" fill="#111a15" opacity="0.65"/><rect x="1152" y="672" width="90" height="90" transform="rotate(45 1200 720)" fill="#0b110e" opacity="0.38"/><rect x="1248" y="672" width="90" height="90" transform="rotate(45 1296 720)" fill="#111a15" opacity="0.48"/><rect x="0" y="768" width="90" height="90" transform="rotate(45 48 816)" fill="#0b110e" opacity="0.31"/><rect x="96" y="768" width="90" height="90" transform="rotate(45 144 816)" fill="#111a15" opacity="0.67"/><rect x="192" y="768" width="90" height="90" transform="rotate(45 240 816)" fill="#006c45" opacity="0.45"/><rect x="288" y="768" width="90" height="90" transform="rotate(45 336 816)" fill="#0b110e" opacity="0.72"/><rect x="384" y="768" width="90" height="90" transform="rotate(45 432 816)" fill="#d4af37" opacity="0.56"/><rect x="480" y="768" width="90" height="90" transform="rotate(45 528 816)" fill="#0b110e" opacity="0.72"/><rect x="576" y="768" width="90" height="90" transform="rotate(45 624 816)" fill="#111a15" opacity="0.43"/><rect x="672" y="768" width="90" height="90" transform="rotate(45 720 816)" fill="#0b110e" opacity="0.69"/><rect x="768" y="768" width="90" height="90" transform="rotate(45 816 816)" fill="#d4af37" opacity="0.30"/><rect x="864" y="768" width="90" height="90" transform="rotate(45 912 816)" fill="#0b110e" opacity="0.53"/><rect x="960" y="768" width="90" height="90" transform="rotate(45 1008 816)" fill="#d4af37" opacity="0.49"/><rect x="1056" y="768" width="90" height="90" transform="rotate(45 1104 816)" fill="#111a15" opacity="0.36"/><rect x="1152" y="768" width="90" height="90" transform="rotate(45 1200 816)" fill="#0b110e" opacity="0.73"/><rect x="1248" y="768" width="90" height="90" transform="rotate(45 1296 816)" fill="#111a15" opacity="0.42"/><rect x="0" y="864" width="90" height="90" transform="rotate(45 48 912)" fill="#111a15" opacity="0.29"/><rect x="96" y="864" width="90" height="90" transform="rotate(45 144 912)" fill="#006c45" opacity="0.63"/><rect x="192" y="864" width="90" height="90" transform="rotate(45 240 912)" fill="#006c45" opacity="0.77"/><rect x="288" y="864" width="90" height="90" transform="rotate(45 336 912)" fill="#111a15" opacity="0.50"/><rect x="384" y="864" width="90" height="90" transform="rotate(45 432 912)" fill="#0b110e" opacity="0.40"/><rect x="480" y="864" width="90" height="90" transform="rotate(45 528 912)" fill="#006c45" opacity="0.37"/><rect x="576" y="864" width="90" height="90" transform="rotate(45 624 912)" fill="#0b110e" opacity="0.70"/><rect x="672" y="864" width="90" height="90" transform="rotate(45 720 912)" fill="#d4af37" opacity="0.75"/><rect x="768" y="864" width="90" height="90" transform="rotate(45 816 912)" fill="#111a15" opacity="0.69"/><rect x="864" y="864" width="90" height="90" transform="rotate(45 912 912)" fill="#0b110e" opacity="0.48"/><rect x="960" y="864" width="90" height="90" transform="rotate(45 1008 912)" fill="#006c45" opacity="0.48"/><rect x="1056" y="864" width="90" height="90" transform="rotate(45 1104 912)" fill="#0b110e" opacity="0.30"/><rect x="1152" y="864" width="90" height="90" transform="rotate(45 1200 912)" fill="#0b110e" opacity="0.60"/><rect x="1248" y="864" width="90" height="90" transform="rotate(45 1296 912)" fill="#111a15" opacity="0.42"/>
<rect width="1200" height="800" fill="url(#lamp)"/>
<rect width="1200" height="800" fill="url(#vig)"/>
<rect width="1200" height="800" fill="url(#grain)"/>
</g>
</svg>
